<svg id="Layer_1" data-name="Layer 1" xmlns="http://www.w3.org/2000/svg" viewBox="0 0 400 400"><defs><style>.cls-1{fill:#250c77;}</style></defs><path class="cls-1" d="M89.34,193.18A111,111,0,0,1,192.87,89.4l23-26.8L193.34,36.34a163.83,163.83,0,0,0-157,156.37L62.6,170.25Z"/><path class="cls-1" d="M206.82,89.34A111,111,0,0,1,310.6,192.87l26.8,23,26.26-22.51a163.83,163.83,0,0,0-156.37-157L229.75,62.6Z"/><path class="cls-1" d="M310.66,206.82A111,111,0,0,1,207.13,310.6l-23,26.8,22.51,26.26a163.83,163.83,0,0,0,157-156.37L337.4,229.75Z"/><path class="cls-1" d="M193.18,310.66A111,111,0,0,1,89.4,207.13l-26.8-23L36.34,206.66a163.83,163.83,0,0,0,156.37,157L170.2,337.4Z"/><rect class="cls-1" x="230.8" y="165.33" width="34.65" height="102.09" rx="4"/><rect class="cls-1" x="134.54" y="195.18" width="34.65" height="72.23" rx="4"/><path class="cls-1" d="M213.48,132.58h-27a3.86,3.86,0,0,0-3.85,3.85V263.57a3.86,3.86,0,0,0,3.85,3.85h27a3.86,3.86,0,0,0,3.85-3.85V136.43A3.86,3.86,0,0,0,213.48,132.58ZM207.7,255.86a1.93,1.93,0,0,1-1.92,1.93H194.22a1.93,1.93,0,0,1-1.92-1.93V144.14a1.92,1.92,0,0,1,1.92-1.93h11.56a1.92,1.92,0,0,1,1.92,1.93Z"/></svg>