<svg width="890" height="403" viewBox="0 0 890 403" fill="none" xmlns="http://www.w3.org/2000/svg">
<path d="M879.158 285.814C885.217 266.74 886.268 246.426 882.21 226.827C875.6 196.249 854.313 159.23 792.891 143.261C676.608 113.015 636.218 24.5584 527.447 52.7462C527.447 52.7462 469.061 63.3661 441.433 160.037C413.805 256.708 305.556 258.354 342.831 342.522C348.919 356.292 365.319 371.296 388.882 385.477L830.102 383.989C860.497 347.302 869.985 315.569 879.158 285.814Z" fill="#EBEBFF"/>
<path d="M775.066 216.694H758.524V198.557C758.52 194.228 757.053 190.027 754.364 186.637C751.674 183.247 747.918 180.866 743.706 179.881V157.391H737.617V179.453C732.862 179.899 728.443 182.103 725.226 185.636C722.009 189.169 720.224 193.777 720.221 198.557V217.201H703.711V237.997H702.604V276.615L672.683 276.409V230.242H638.43V264.08H614.329V296.937H585.246V383.985H823.742V274.225H775.034L775.066 216.694Z" fill="#D6D7F4"/>
<path d="M433.544 264.494V221.238H449.753V198.115H455.842V221.238H470.771V264.494H487.518V290.402H514.197V202.135H569.926V383.956H533.617H517.976H478.614H460.428H412.938V264.494H433.544Z" fill="#D6D7F4"/>
<path d="M737.948 383.514L484.001 383.703C479.388 383.703 474.963 381.869 471.701 378.604C468.438 375.339 466.605 370.911 466.605 366.294L755.375 366.072C755.379 368.364 754.931 370.634 754.057 372.752C753.183 374.87 751.899 376.794 750.28 378.414C748.661 380.035 746.738 381.319 744.622 382.194C742.506 383.069 740.238 383.518 737.948 383.514Z" fill="#3D5AC4"/>
<path d="M737.948 377.515L483.986 377.705C480.42 377.709 476.939 376.617 474.015 374.576C471.09 372.535 468.862 369.643 467.634 366.293H466.559C466.559 370.911 468.391 375.339 471.654 378.604C474.916 381.869 479.341 383.703 483.954 383.703L737.901 383.513C742.515 383.513 746.939 381.679 750.202 378.414C753.464 375.149 755.297 370.721 755.297 366.104H754.221C752.997 369.441 750.782 372.323 747.873 374.363C744.964 376.403 741.5 377.503 737.948 377.515Z" fill="#5571E9"/>
<path d="M627.357 372.006H594.558C593.013 372.006 591.531 371.393 590.437 370.301C589.343 369.209 588.727 367.728 588.723 366.182H633.193C633.184 367.727 632.566 369.205 631.473 370.296C630.38 371.387 628.901 372.002 627.357 372.006Z" fill="#27429C"/>
<path d="M740.497 366.071L481.427 366.277L481.316 209.796C481.312 207.661 481.729 205.546 482.542 203.572C483.356 201.598 484.551 199.804 486.058 198.293C487.565 196.782 489.355 195.583 491.325 194.765C493.296 193.947 495.409 193.526 497.542 193.526L724.114 193.352C726.247 193.349 728.359 193.768 730.33 194.583C732.302 195.398 734.093 196.593 735.603 198.101C737.113 199.609 738.311 201.4 739.129 203.371C739.947 205.342 740.369 207.455 740.371 209.59L740.497 366.071Z" fill="#5571E9"/>
<path d="M726.927 206.947H494.852V352.65H726.927V206.947Z" fill="#312C76"/>
<path d="M726.974 338.723H494.898V352.65H726.974V338.723Z" fill="#151247"/>
<path d="M726.884 206.947H494.809V213.864H726.884V206.947Z" fill="#151247"/>
<path opacity="0.16" d="M572.199 206.979L494.852 284.5L494.915 352.746H495.073L640.549 206.932L572.199 206.979Z" fill="#5571E9"/>
<path opacity="0.16" d="M524.887 352.73L559.156 352.699L704.632 206.885L670.363 206.916L524.887 352.73Z" fill="#5571E9"/>
<path opacity="0.16" d="M699.693 352.587L726.973 325.254L726.926 273.516L645.055 352.619L699.693 352.587Z" fill="#5571E9"/>
<path d="M740.497 269.195H481.316V297.826H740.497V269.195Z" fill="#F5D100"/>
<mask id="mask0_54_3" style="mask-type:luminance" maskUnits="userSpaceOnUse" x="481" y="269" width="260" height="29">
<path d="M740.497 269.195H481.316V297.826H740.497V269.195Z" fill="white"/>
</mask>
<g mask="url(#mask0_54_3)">
<path d="M513.642 307.861H491.344L510.542 263.926H532.841L513.642 307.861Z" fill="white"/>
<path d="M561.197 307.861H538.898L558.097 263.926H580.395L561.197 307.861Z" fill="white"/>
<path d="M608.767 307.861H586.453L605.652 263.926H627.95L608.767 307.861Z" fill="white"/>
<path d="M656.318 307.861H634.02L653.218 263.926H675.516L656.318 307.861Z" fill="white"/>
<path d="M703.872 307.861H681.574L700.773 263.926H723.071L703.872 307.861Z" fill="white"/>
</g>
<path d="M460.5 219.75L455.423 219.94L452.466 219.007C451.803 218.784 451.085 218.787 450.424 219.016C449.763 219.245 449.196 219.687 448.813 220.273L448.449 220.827L463.251 229.009L466.051 222.868L460.5 219.75Z" fill="#14103D"/>
<path d="M463.269 229.153L448.34 220.892L448.862 219.942C448.886 219.898 448.92 219.859 448.959 219.828C448.999 219.797 449.044 219.775 449.093 219.761C449.141 219.748 449.192 219.745 449.242 219.751C449.292 219.758 449.34 219.774 449.384 219.8L463.964 227.855L463.269 229.153Z" fill="#14103D"/>
<path d="M466.118 222.867L470.04 216.093L466.118 209.098L460.504 219.749L466.118 222.867Z" fill="#EB8175"/>
<path d="M496.777 183.887C496.777 183.887 475.665 177.826 473.64 183.523C471.616 189.221 459.297 214.465 459.297 214.465L468.485 219.213L482.259 195.251L500.809 193.668L496.777 183.887Z" fill="#14103D"/>
<path d="M479.62 227.441L475.54 230.069L472.488 230.686C471.801 230.813 471.175 231.165 470.708 231.686C470.242 232.208 469.961 232.869 469.91 233.566V234.231H486.832L486.357 227.457L479.62 227.441Z" fill="#14103D"/>
<path d="M486.802 234.329H469.738V233.253C469.738 233.203 469.748 233.154 469.767 233.108C469.786 233.061 469.814 233.02 469.849 232.984C469.885 232.949 469.927 232.921 469.973 232.902C470.019 232.883 470.068 232.873 470.118 232.873H486.786V234.345" fill="#14103D"/>
<path d="M486.247 227.444L486.801 216.096L480.048 215.336L479.621 227.444H486.247Z" fill="#EB8175"/>
<path d="M499.631 182.922L479.736 183.824C479.736 183.824 476.874 183.982 477.064 190.677C477.253 197.372 477.238 224.357 477.238 224.357L486.805 224.689L488.624 196.438L508.55 196.185C510.613 196.185 512.633 195.587 514.364 194.463C516.096 193.34 517.465 191.739 518.308 189.854C519.003 188.329 519.197 186.622 518.861 184.979L499.631 182.922Z" fill="#231C61"/>
<path d="M480.746 178.903C480.746 180.786 479.481 181.071 477.583 181.071C475.685 181.071 473.914 180.802 473.914 178.919C473.914 178.012 474.274 177.142 474.915 176.501C475.555 175.86 476.424 175.5 477.33 175.5C478.236 175.5 479.105 175.86 479.745 176.501C480.386 177.142 480.746 178.012 480.746 178.919V178.903Z" fill="#E1AD9D"/>
<path d="M483.148 180.833H479.194C478.699 180.829 478.225 180.631 477.874 180.282C477.522 179.934 477.321 179.461 477.312 178.965C477.317 178.467 477.516 177.991 477.868 177.638C478.22 177.286 478.697 177.086 479.194 177.082H483.148C483.644 177.082 484.121 177.278 484.473 177.628C484.826 177.978 485.026 178.453 485.03 178.95C485.026 179.448 484.826 179.925 484.474 180.277C484.122 180.629 483.646 180.829 483.148 180.833Z" fill="#E1AD9D"/>
<path d="M483.008 181.228L481.68 174.755L497.921 172.983L501.179 153.99C501.511 152.265 503.994 150.128 505.733 150.461L505.227 150.318C506.124 150.53 506.917 151.053 507.464 151.795C508.012 152.537 508.278 153.45 508.216 154.37L505.053 177.098C504.942 177.699 504.658 178.256 504.237 178.7C503.816 179.143 503.276 179.456 502.681 179.598L483.008 181.228Z" fill="#C8C6F2"/>
<path d="M515.44 150.871C515.775 150.903 516.104 150.978 516.421 151.092H516.579C517.929 151.692 519.087 152.655 519.924 153.873C520.762 155.09 521.246 156.517 521.323 157.993L518.793 184.899C501.95 184.756 499.562 182.826 499.562 182.826L500.907 155.255C501.112 152.659 502.298 150.206 505.256 149.969L515.44 150.871Z" fill="#D8D7FD"/>
<path d="M496.907 181.023C497.05 182.907 495.784 183.271 493.903 183.397C492.021 183.524 490.218 183.397 490.091 181.482C490.041 180.583 490.346 179.701 490.942 179.026C491.538 178.352 492.375 177.939 493.273 177.879C494.17 177.818 495.055 178.115 495.736 178.703C496.416 179.292 496.837 180.126 496.907 181.023Z" fill="#EB8175"/>
<path d="M499.442 182.779L495.504 183.048C495.007 183.083 494.517 182.919 494.14 182.593C493.764 182.266 493.532 181.804 493.496 181.307C493.465 180.81 493.633 180.321 493.962 179.947C494.291 179.573 494.754 179.345 495.251 179.313L499.189 179.044C499.434 179.026 499.68 179.058 499.913 179.136C500.146 179.214 500.361 179.338 500.547 179.5C500.732 179.662 500.883 179.858 500.992 180.079C501.101 180.299 501.165 180.539 501.181 180.785C501.199 181.03 501.167 181.276 501.089 181.51C501.011 181.743 500.887 181.958 500.726 182.143C500.564 182.329 500.367 182.48 500.147 182.589C499.927 182.698 499.687 182.763 499.442 182.779Z" fill="#EB8175"/>
<path d="M499.263 183.19L497.523 176.86L515.22 174.011L514.208 157.535C514.355 156.596 514.82 155.736 515.526 155.099C516.231 154.462 517.133 154.087 518.082 154.037C518.992 154.191 519.818 154.664 520.412 155.372C521.006 156.079 521.329 156.975 521.324 157.899L522.605 177.635C522.539 178.238 522.301 178.809 521.919 179.28C521.538 179.752 521.03 180.104 520.454 180.294L499.263 183.19Z" fill="#D8D7FD"/>
<path d="M468.682 161.3L488.007 163.136C488.316 163.164 488.605 163.297 488.827 163.513C489.049 163.729 489.189 164.015 489.225 164.323L491.249 181.733C491.284 181.939 491.271 182.15 491.211 182.351C491.151 182.551 491.046 182.735 490.904 182.888C490.762 183.041 490.586 183.159 490.391 183.233C490.196 183.308 489.986 183.336 489.778 183.316L470.137 181.464C469.824 181.433 469.533 181.294 469.311 181.072C469.089 180.85 468.95 180.558 468.919 180.245L467.211 162.836C467.184 162.633 467.203 162.427 467.267 162.233C467.33 162.039 467.436 161.862 467.578 161.714C467.719 161.567 467.891 161.453 468.083 161.381C468.274 161.31 468.479 161.282 468.682 161.3Z" fill="#091218"/>
<path d="M467.637 161.208L486.946 163.029C487.256 163.053 487.547 163.185 487.77 163.402C487.992 163.618 488.132 163.906 488.164 164.216L490.188 181.625C490.226 181.832 490.216 182.045 490.157 182.246C490.099 182.448 489.994 182.633 489.851 182.787C489.708 182.941 489.531 183.059 489.334 183.132C489.137 183.205 488.926 183.231 488.717 183.208L469.092 181.356C468.778 181.328 468.485 181.19 468.262 180.968C468.04 180.745 467.902 180.451 467.874 180.138L466.166 162.728C466.142 162.527 466.163 162.322 466.227 162.13C466.292 161.938 466.399 161.763 466.539 161.617C466.68 161.472 466.852 161.359 467.042 161.289C467.232 161.218 467.435 161.191 467.637 161.208Z" fill="#1B2934"/>
<path d="M490.71 181.877L503.9 183.127C503.995 183.135 504.088 183.162 504.174 183.206C504.259 183.25 504.335 183.311 504.396 183.385C504.458 183.458 504.505 183.543 504.533 183.635C504.562 183.726 504.572 183.823 504.564 183.919C504.544 184.11 504.45 184.287 504.303 184.411C504.155 184.535 503.965 184.597 503.773 184.583L489.777 183.317L490.71 181.877Z" fill="#091218"/>
<path d="M478.707 171.763C478.67 172.182 478.51 172.58 478.246 172.908C477.982 173.236 477.627 173.478 477.226 173.603C476.825 173.728 476.395 173.731 475.992 173.611C475.589 173.491 475.231 173.254 474.963 172.93C474.695 172.606 474.529 172.209 474.487 171.791C474.445 171.372 474.528 170.951 474.726 170.579C474.924 170.208 475.228 169.904 475.599 169.706C475.969 169.509 476.391 169.425 476.809 169.468C477.363 169.524 477.873 169.796 478.228 170.226C478.583 170.655 478.755 171.207 478.707 171.763Z" fill="white"/>
<path d="M513.657 161.303L514.084 173.695L497.574 176.829L512.123 172.271L513.657 161.303Z" fill="#C8C6F2"/>
<path d="M504.895 149.226L505.986 152.201C506.185 152.723 506.529 153.177 506.977 153.511C507.425 153.844 507.959 154.043 508.516 154.084C509.012 154.12 509.508 154.027 509.957 153.814C510.406 153.602 510.793 153.277 511.081 152.872C511.368 152.466 511.547 151.994 511.599 151.499C511.651 151.005 511.575 150.505 511.378 150.049L509.449 145.475L504.895 149.226Z" fill="#EB8175"/>
<path d="M505.875 151.805C505.875 151.805 511.315 150.777 510.508 146.013C509.702 141.249 504.594 144.968 504.594 144.968L505.1 149.716L505.875 151.805Z" fill="#E16C5F"/>
<path d="M497.477 137.563C496.759 139.094 496.511 140.803 496.765 142.476C497.018 144.148 497.762 145.707 498.901 146.956C500.04 148.205 501.524 149.088 503.165 149.492C504.806 149.897 506.53 149.805 508.119 149.228C509.708 148.652 511.09 147.616 512.09 146.253C513.091 144.89 513.664 143.261 513.739 141.571C513.814 139.882 513.386 138.208 512.509 136.762C511.633 135.316 510.348 134.162 508.816 133.448C506.766 132.496 504.423 132.394 502.299 133.165C500.174 133.936 498.441 135.517 497.477 137.563Z" fill="#EB8175"/>
<mask id="mask1_54_3" style="mask-type:luminance" maskUnits="userSpaceOnUse" x="496" y="132" width="18" height="18">
<path d="M497.477 137.563C496.759 139.094 496.511 140.803 496.765 142.476C497.018 144.148 497.762 145.707 498.901 146.956C500.04 148.205 501.524 149.088 503.165 149.492C504.806 149.897 506.53 149.805 508.119 149.228C509.708 148.652 511.09 147.616 512.09 146.253C513.091 144.89 513.664 143.261 513.739 141.571C513.814 139.882 513.386 138.208 512.509 136.762C511.633 135.316 510.348 134.162 508.816 133.448C506.766 132.496 504.423 132.394 502.299 133.165C500.174 133.936 498.441 135.517 497.477 137.563Z" fill="white"/>
</mask>
<g mask="url(#mask1_54_3)">
<path d="M508.372 142.927C508.372 142.927 507.028 149.764 512.057 149.922C517.086 150.081 514.35 137.087 514.35 137.087L506.443 129.078L494.266 132.085L495.483 139.999C495.483 139.999 497.413 141.027 507.866 139.302L508.372 142.927Z" fill="#231C61"/>
<path d="M503.41 137.576L507.411 143.432L510.859 139.618L503.41 137.576Z" fill="#231C61"/>
</g>
<path d="M507.033 141.342C506.83 141.775 506.76 142.257 506.832 142.729C506.905 143.201 507.116 143.641 507.438 143.992C507.761 144.344 508.181 144.591 508.645 144.703C509.109 144.815 509.595 144.787 510.043 144.621C510.49 144.455 510.878 144.16 511.157 143.773C511.437 143.386 511.594 142.924 511.611 142.447C511.627 141.97 511.501 141.499 511.249 141.094C510.997 140.688 510.63 140.367 510.195 140.171C509.619 139.92 508.968 139.902 508.379 140.12C507.789 140.338 507.307 140.776 507.033 141.342Z" fill="#EB8175"/>
<path d="M495.814 139.825C495.814 139.825 493.979 133.099 498.328 128.92C499.185 128.102 500.199 127.466 501.308 127.051C502.418 126.637 503.6 126.452 504.783 126.508C505.966 126.564 507.125 126.86 508.19 127.378C509.256 127.896 510.205 128.626 510.98 129.522C512.871 131.963 513.864 134.981 513.795 138.068L495.814 139.825Z" fill="#F5D100"/>
<path d="M496.746 139.716V135.506C496.738 134.993 496.93 134.498 497.281 134.125C497.633 133.753 498.117 133.532 498.628 133.512C499.132 133.489 499.626 133.66 500.008 133.989C500.39 134.319 500.632 134.782 500.684 135.284L501.095 139.479" stroke="#F1AB00" stroke-width="0.28" stroke-miterlimit="10"/>
<path d="M513.809 138.068L494.23 139.952" stroke="white" stroke-width="1.12" stroke-linecap="round" stroke-linejoin="round"/>
<path d="M692.07 365.121L696.467 369.363L691.454 372.069L687.168 367.859L692.07 365.121Z" fill="#EB8175"/>
<path d="M661.184 333.326L664.109 346.32C664.728 348.978 665.861 351.489 667.446 353.711L686.755 371.121L694.394 364.885L677.915 347.475L671.874 324.32L661.184 333.326Z" fill="#14103D"/>
<path d="M691.313 371.944L689.731 376.993L687.928 379.509C687.518 380.07 687.303 380.75 687.317 381.445C687.331 382.141 687.574 382.812 688.007 383.355L688.403 383.877L700.722 372.387L695.804 367.781L691.313 371.944Z" fill="#14103D"/>
<path d="M700.848 372.42L688.434 384.005L687.438 382.945L699.852 371.359L700.848 372.42Z" fill="#14103D"/>
<path d="M649.865 373.018L648.22 378.526L642.559 377.007L644.219 371.594L649.865 373.018Z" fill="#EB8175"/>
<path d="M657.412 318.842L641.598 372.416L651.592 374.901L660.575 348.058L671.534 330.49C672.107 329.703 672.635 328.884 673.116 328.037C673.961 326.468 674.391 324.708 674.365 322.925V319.443L657.412 318.842Z" fill="#231C61"/>
<path d="M642.89 376.549L637.892 378.401L634.729 378.511C634.029 378.523 633.353 378.768 632.806 379.206C632.259 379.644 631.873 380.252 631.709 380.933L631.551 381.582L648.282 384.336L648.931 377.562L642.89 376.549Z" fill="#14103D"/>
<path d="M648.374 384.382L631.5 381.597L631.737 380.156L648.611 382.926L648.374 384.382Z" fill="#14103D"/>
<path d="M635.35 264.432L628.945 274.418L632.013 276.618L638.64 266.046L635.35 264.432Z" fill="#334FBE"/>
<path d="M627.024 247.859C627.024 247.859 629.981 260.252 644.973 265.127C645.185 265.194 645.373 265.318 645.518 265.485C645.663 265.653 645.759 265.857 645.796 266.076C646.078 267.219 645.907 268.427 645.317 269.446C644.726 270.465 643.764 271.214 642.633 271.537C642.475 271.575 642.31 271.58 642.15 271.553C641.99 271.526 641.836 271.466 641.7 271.378C639.407 269.954 628.131 263.354 617.188 265.253L627.024 247.859Z" fill="#4265D1"/>
<path d="M627.031 247.859C627.031 247.859 624.28 260.22 617.227 265.269C617.227 265.253 618.223 254.428 627.031 247.859Z" fill="#334FBE"/>
<path d="M626.858 273.768C626.711 274.973 627 276.192 627.673 277.202C628.346 278.212 629.358 278.948 630.527 279.276C631.619 279.5 632.756 279.281 633.687 278.667C634.618 278.052 635.268 277.093 635.492 276C635.639 274.792 635.347 273.572 634.671 272.562C633.995 271.551 632.979 270.816 631.808 270.492C631.268 270.381 630.711 270.378 630.17 270.482C629.629 270.587 629.113 270.798 628.653 271.102C628.194 271.406 627.798 271.799 627.49 272.256C627.182 272.713 626.967 273.227 626.858 273.768Z" fill="#EB8175"/>
<path d="M638.869 280.446L634.441 275.809L631.531 279.37L638.869 284.751" fill="#EB8175"/>
<path d="M638.178 276.158L633.434 283.138L646.338 294.881C647.119 295.102 647.933 295.182 648.742 295.119L665.679 292.919C666.314 292.891 666.937 292.737 667.513 292.467C668.088 292.196 668.605 291.815 669.032 291.344C669.46 290.874 669.79 290.323 670.005 289.724C670.219 289.125 670.313 288.49 670.281 287.854C670.155 285.18 670.676 281.318 668.004 281.524L648.331 285.559L638.178 276.158Z" fill="#C8C6F2"/>
<path d="M676.147 292.176C676.379 290.359 676.092 288.513 675.32 286.852C674.547 285.191 673.321 283.783 671.782 282.791C670.696 281.931 669.355 281.458 667.971 281.445C666.079 281.607 664.277 282.326 662.794 283.512C661.31 284.698 660.212 286.297 659.637 288.108C657.106 295.864 656.379 318.797 656.379 318.797L674.534 319.43L676.147 292.176Z" fill="#D8D7FD"/>
<path d="M669.445 292.746L674.917 312.815L676.008 295.785L669.445 292.746Z" fill="#C8C6F2"/>
<path d="M691.696 332.361C692.53 331.474 693.018 330.316 693.07 329.099C693.123 327.881 692.736 326.686 691.981 325.73C691.229 324.911 690.184 324.421 689.074 324.368C687.964 324.315 686.878 324.702 686.051 325.445C685.216 326.333 684.729 327.491 684.677 328.708C684.624 329.925 685.011 331.121 685.766 332.077C686.518 332.896 687.562 333.385 688.673 333.438C689.783 333.492 690.869 333.105 691.696 332.361Z" fill="#EB8175"/>
<path d="M683.453 318.052L686.774 326.235L691.218 325.064L688.466 316.391" fill="#EB8175"/>
<path d="M683.672 324.319L692.75 322.309L686.598 301.212C686.363 300.431 685.994 299.697 685.507 299.044L674.184 284.958C672.602 282.758 670.088 283.153 667.858 284.673C666.809 285.41 666.094 286.533 665.868 287.796C665.643 289.059 665.926 290.36 666.656 291.415L677.552 304.535L683.672 324.319Z" fill="#D8D7FD"/>
<path d="M663.734 278.691L664.082 281.856C664.145 282.417 664.368 282.948 664.724 283.386C665.08 283.824 665.555 284.15 666.091 284.325C666.568 284.479 667.076 284.509 667.568 284.411C668.06 284.313 668.518 284.091 668.9 283.766C669.282 283.441 669.574 283.024 669.749 282.554C669.925 282.084 669.977 281.577 669.902 281.081L669.127 276.143L663.734 278.691Z" fill="#EB8175"/>
<path d="M664.03 281.586C664.03 281.586 669.629 281.396 670.024 276.537C670.419 271.678 664.473 274.559 664.473 274.559L663.777 279.307L664.03 281.586Z" fill="#E16C5F"/>
<path d="M659.353 265.458C658.268 266.779 657.598 268.392 657.429 270.095C657.26 271.797 657.6 273.511 658.405 275.019C659.21 276.528 660.445 277.764 661.952 278.57C663.459 279.376 665.172 279.716 666.873 279.548C668.573 279.379 670.186 278.709 671.506 277.622C672.826 276.536 673.794 275.082 674.288 273.444C674.782 271.807 674.779 270.059 674.279 268.424C673.78 266.788 672.807 265.337 671.483 264.255C669.714 262.809 667.443 262.123 665.17 262.349C662.896 262.574 660.805 263.692 659.353 265.458Z" fill="#EB8175"/>
<mask id="mask2_54_3" style="mask-type:luminance" maskUnits="userSpaceOnUse" x="657" y="262" width="18" height="18">
<path d="M659.353 265.458C658.268 266.779 657.598 268.392 657.429 270.095C657.26 271.797 657.6 273.511 658.405 275.019C659.21 276.528 660.445 277.764 661.952 278.57C663.459 279.376 665.172 279.716 666.873 279.548C668.573 279.379 670.186 278.709 671.506 277.622C672.826 276.536 673.794 275.082 674.288 273.444C674.782 271.807 674.779 270.059 674.279 268.424C673.78 266.788 672.807 265.337 671.483 264.255C669.714 262.809 667.443 262.123 665.17 262.349C662.896 262.574 660.805 263.692 659.353 265.458Z" fill="white"/>
</mask>
<g mask="url(#mask2_54_3)">
<path d="M668.697 273.372C668.697 273.372 665.677 279.703 670.564 281.143C675.45 282.583 676.004 269.131 676.004 269.131L670.2 259.302L657.548 259.207L656.773 267.231C656.773 267.231 658.355 268.719 669.093 269.637L668.697 273.372Z" fill="#231C61"/>
<path d="M665.168 266.883L667.635 273.625L671.952 270.745L665.168 266.883Z" fill="#231C61"/>
</g>
<path d="M667.784 271.491C667.481 271.865 667.294 272.32 667.249 272.8C667.204 273.28 667.302 273.762 667.53 274.186C667.759 274.61 668.107 274.957 668.533 275.182C668.958 275.408 669.44 275.503 669.919 275.454C670.398 275.405 670.852 275.216 671.223 274.909C671.595 274.603 671.867 274.193 672.006 273.732C672.144 273.27 672.144 272.778 672.003 272.318C671.862 271.857 671.589 271.448 671.216 271.143C670.968 270.94 670.683 270.788 670.376 270.695C670.069 270.603 669.747 270.572 669.428 270.604C669.109 270.637 668.8 270.732 668.518 270.884C668.236 271.036 667.987 271.242 667.784 271.491Z" fill="#EB8175"/>
<path d="M657.122 267.943C657.122 267.943 656.695 260.9 661.866 257.687C662.881 257.052 664.015 256.629 665.198 256.444C666.381 256.259 667.589 256.316 668.75 256.612C669.91 256.908 670.999 257.436 671.949 258.165C672.9 258.894 673.693 259.808 674.28 260.853C675.643 263.666 675.994 266.863 675.277 269.906L657.122 267.943Z" fill="#F5D100"/>
<path d="M658.059 268.023L658.881 263.861C658.988 263.353 659.286 262.907 659.712 262.612C660.139 262.318 660.662 262.198 661.174 262.278C661.679 262.364 662.132 262.639 662.441 263.048C662.749 263.457 662.89 263.969 662.835 264.478L662.376 268.704" stroke="#F1AB00" stroke-width="0.28" stroke-miterlimit="10"/>
<path d="M675.295 269.97L655.527 267.738" stroke="white" stroke-width="1.13" stroke-linecap="round" stroke-linejoin="round"/>
<path d="M795.96 321.17L775.512 341.349" stroke="#3D5AC4" stroke-width="2.65" stroke-miterlimit="10"/>
<path d="M795.96 299.6L775.512 319.779" stroke="#3D5AC4" stroke-width="2.65" stroke-miterlimit="10"/>
<path d="M795.96 278.041L775.512 298.22" stroke="#3D5AC4" stroke-width="2.65" stroke-miterlimit="10"/>
<path d="M795.96 256.471L775.512 276.65" stroke="#3D5AC4" stroke-width="2.65" stroke-miterlimit="10"/>
<path d="M795.96 234.912L775.512 255.091" stroke="#3D5AC4" stroke-width="2.65" stroke-miterlimit="10"/>
<path d="M795.96 213.342L775.512 233.521" stroke="#3D5AC4" stroke-width="2.65" stroke-miterlimit="10"/>
<path d="M795.96 191.77L775.512 211.949" stroke="#3D5AC4" stroke-width="2.65" stroke-miterlimit="10"/>
<path d="M795.96 170.215L775.512 190.394" stroke="#3D5AC4" stroke-width="2.65" stroke-miterlimit="10"/>
<path d="M795.96 148.641L775.512 168.82" stroke="#3D5AC4" stroke-width="2.65" stroke-miterlimit="10"/>
<path d="M795.96 127.086L775.512 147.265" stroke="#3D5AC4" stroke-width="2.65" stroke-miterlimit="10"/>
<path d="M795.96 105.512L775.512 125.691" stroke="#3D5AC4" stroke-width="2.65" stroke-miterlimit="10"/>
<path d="M775.512 319.779H795.96" stroke="#3D5AC4" stroke-width="2.65" stroke-miterlimit="10"/>
<path d="M775.512 298.221H795.96" stroke="#3D5AC4" stroke-width="2.65" stroke-miterlimit="10"/>
<path d="M775.512 276.65H795.96" stroke="#3D5AC4" stroke-width="2.65" stroke-miterlimit="10"/>
<path d="M775.512 255.092H795.96" stroke="#3D5AC4" stroke-width="2.65" stroke-miterlimit="10"/>
<path d="M775.512 233.521H795.96" stroke="#3D5AC4" stroke-width="2.65" stroke-miterlimit="10"/>
<path d="M775.512 211.949H795.96" stroke="#3D5AC4" stroke-width="2.65" stroke-miterlimit="10"/>
<path d="M775.512 190.393H795.96" stroke="#3D5AC4" stroke-width="2.65" stroke-miterlimit="10"/>
<path d="M775.512 168.82H795.96" stroke="#3D5AC4" stroke-width="2.65" stroke-miterlimit="10"/>
<path d="M775.512 147.266H795.96" stroke="#3D5AC4" stroke-width="2.65" stroke-miterlimit="10"/>
<path d="M775.512 125.691H795.96" stroke="#3D5AC4" stroke-width="2.65" stroke-miterlimit="10"/>
<path d="M775.512 347.189V108.961" stroke="#5571E9" stroke-width="2.65" stroke-miterlimit="10"/>
<path d="M795.957 347.189V108.961" stroke="#5571E9" stroke-width="2.65" stroke-miterlimit="10"/>
<path d="M805.699 341.35H764.961V383.703H805.699V341.35Z" fill="#231C61"/>
<path d="M796.004 68.6191H774.718C770.962 68.6191 767.918 71.6661 767.918 75.4247V102.156C767.918 105.915 770.962 108.962 774.718 108.962H796.004C799.76 108.962 802.804 105.915 802.804 102.156V75.4247C802.804 71.6661 799.76 68.6191 796.004 68.6191Z" fill="#3D5AC4"/>
<path d="M771.094 78.3535H784.805C786.172 78.3535 787.483 78.8971 788.45 79.8647C789.417 80.8323 789.96 82.1447 789.96 83.5131V92.0755C789.96 93.4439 789.417 94.7563 788.45 95.7239C787.483 96.6915 786.172 97.2351 784.805 97.2351H771.094V78.3535Z" fill="#2F4DAB"/>
<path d="M640.551 111.162L656.919 158.738" stroke="#231C61" stroke-width="2.16" stroke-miterlimit="10"/>
<path d="M629.179 105.512L597.266 148.64" stroke="#231C61" stroke-width="2.16" stroke-miterlimit="10"/>
<path d="M578.331 172.847L611.304 215.993C614.933 220.742 621.722 221.647 626.467 218.015L669.578 185.016C674.323 181.384 675.228 174.589 671.599 169.84L638.626 126.695C634.996 121.946 628.208 121.041 623.462 124.673L580.351 157.672C575.606 161.304 574.701 168.098 578.331 172.847Z" fill="#F5D100"/>
<path d="M586.806 172.554L613.794 207.867C616.76 211.748 622.308 212.488 626.186 209.52L661.471 182.511C665.349 179.542 666.088 173.99 663.122 170.109L636.135 134.795C633.169 130.914 627.621 130.174 623.743 133.143L588.457 160.151C584.579 163.12 583.84 168.673 586.806 172.554Z" stroke="#231C61" stroke-width="1.11" stroke-miterlimit="10"/>
<path d="M627.833 187.433C626.979 193.764 617.269 192.545 618.123 186.135C618.977 179.725 628.703 180.96 627.833 187.433ZM632.008 151.632L628.197 178.538L620.037 177.446C621.239 168.377 622.251 159.577 623.453 150.461L632.008 151.632Z" fill="#231C61"/>
<path d="M635.883 115.168C643.437 115.168 649.562 109.038 649.562 101.477C649.562 93.9165 643.437 87.7871 635.883 87.7871C628.328 87.7871 622.203 93.9165 622.203 101.477C622.203 109.038 628.328 115.168 635.883 115.168Z" fill="#231C61"/>
<path d="M645.564 101.475C645.567 103.391 645.002 105.266 643.94 106.861C642.879 108.456 641.368 109.699 639.6 110.435C637.832 111.171 635.885 111.365 634.007 110.993C632.128 110.621 630.402 109.7 629.047 108.346C627.692 106.992 626.769 105.266 626.394 103.386C626.019 101.507 626.21 99.5586 626.942 97.7878C627.674 96.0169 628.915 94.5032 630.507 93.4382C632.099 92.3732 633.971 91.8047 635.885 91.8047C638.45 91.8047 640.909 92.823 642.723 94.6361C644.538 96.4492 645.56 98.9088 645.564 101.475Z" fill="#373482"/>
<path d="M689.527 39.6074V68.6183" stroke="#3D5AC4" stroke-width="2.65" stroke-miterlimit="10"/>
<path d="M663.527 39.6074V68.6183" stroke="#3D5AC4" stroke-width="2.65" stroke-miterlimit="10"/>
<path d="M715.449 39.6074V68.6183" stroke="#3D5AC4" stroke-width="2.65" stroke-miterlimit="10"/>
<path d="M744.246 39.6074V68.6183" stroke="#3D5AC4" stroke-width="2.65" stroke-miterlimit="10"/>
<path d="M771.094 39.6074V68.6183" stroke="#3D5AC4" stroke-width="2.65" stroke-miterlimit="10"/>
<path d="M798.949 39.6074V68.6183" stroke="#3D5AC4" stroke-width="2.65" stroke-miterlimit="10"/>
<path d="M826.301 39.6074V68.6183" stroke="#3D5AC4" stroke-width="2.65" stroke-miterlimit="10"/>
<path d="M662.168 68.6183L689.527 39.6074" stroke="#3D5AC4" stroke-width="2.65" stroke-miterlimit="10"/>
<path d="M689.527 68.6183L716.886 39.6074" stroke="#3D5AC4" stroke-width="2.65" stroke-miterlimit="10"/>
<path d="M716.887 68.6183L744.245 39.6074" stroke="#3D5AC4" stroke-width="2.65" stroke-miterlimit="10"/>
<path d="M744.246 68.6183L771.605 39.6074" stroke="#3D5AC4" stroke-width="2.65" stroke-miterlimit="10"/>
<path d="M771.602 68.6183L798.945 39.6074" stroke="#3D5AC4" stroke-width="2.65" stroke-miterlimit="10"/>
<path d="M798.949 68.6183L826.308 39.6074" stroke="#3D5AC4" stroke-width="2.65" stroke-miterlimit="10"/>
<path d="M635.883 68.6183H858.928L828.897 39.6074H658.956L635.883 68.6183Z" stroke="#5571E9" stroke-width="2.65" stroke-linecap="round" stroke-linejoin="round"/>
<path d="M635.883 68.6191V101.476" stroke="#5571E9" stroke-width="2.65" stroke-linecap="round" stroke-linejoin="round"/>
<path d="M517.973 379.794L533.581 339.403C533.742 338.975 534.029 338.605 534.405 338.344C534.781 338.083 535.227 337.943 535.685 337.943C536.142 337.943 536.589 338.083 536.965 338.344C537.34 338.605 537.628 338.975 537.788 339.403L553.397 379.794H517.973Z" fill="#F5D100"/>
<mask id="mask3_54_3" style="mask-type:luminance" maskUnits="userSpaceOnUse" x="517" y="337" width="37" height="43">
<path d="M517.973 379.794L533.581 339.403C533.742 338.975 534.029 338.605 534.405 338.344C534.781 338.083 535.227 337.943 535.685 337.943C536.142 337.943 536.589 338.083 536.965 338.344C537.34 338.605 537.628 338.975 537.788 339.403L553.397 379.794H517.973Z" fill="white"/>
</mask>
<g mask="url(#mask3_54_3)">
<path d="M549.297 348.092H521.574V356.67H549.297V348.092Z" fill="#FAFAFA"/>
<path d="M551.434 364.283H520.074V372.861H551.434V364.283Z" fill="#FAFAFA"/>
</g>
<path d="M556.436 379.795H515.113V383.198H556.436V379.795Z" fill="#E8C400"/>
<path d="M744.672 379.905L760.296 339.53C760.457 339.102 760.744 338.732 761.12 338.471C761.496 338.21 761.942 338.07 762.4 338.07C762.857 338.07 763.304 338.21 763.68 338.471C764.055 338.732 764.343 339.102 764.503 339.53L780.112 379.905H744.672Z" fill="#F5D100"/>
<mask id="mask4_54_3" style="mask-type:luminance" maskUnits="userSpaceOnUse" x="744" y="338" width="37" height="42">
<path d="M744.672 379.905L760.296 339.53C760.457 339.102 760.744 338.732 761.12 338.471C761.496 338.21 761.942 338.07 762.4 338.07C762.857 338.07 763.304 338.21 763.68 338.471C764.055 338.732 764.343 339.102 764.503 339.53L780.112 379.905H744.672Z" fill="white"/>
</mask>
<g mask="url(#mask4_54_3)">
<path d="M776.016 348.203H748.293V356.781H776.016V348.203Z" fill="#FAFAFA"/>
<path d="M778.133 364.41H746.773V372.989H778.133V364.41Z" fill="#FAFAFA"/>
</g>
<path d="M783.147 379.902H741.824V383.305H783.147V379.902Z" fill="#E8C400"/>
<path d="M465.231 317.048C467.868 299.325 455.65 282.817 437.94 280.178C420.231 277.539 403.737 289.767 401.099 307.491C398.462 325.214 410.681 341.722 428.39 344.361C446.099 347 462.594 334.772 465.231 317.048Z" fill="#5571E9"/>
<path d="M433.176 300.721V383.195" stroke="#3D5AC4" stroke-width="1.14" stroke-linecap="round" stroke-linejoin="round"/>
<path d="M420.555 302.4L433.174 316.55" stroke="#3D5AC4" stroke-width="1.14" stroke-linecap="round" stroke-linejoin="round"/>
<path d="M444.357 315.773C443.455 316.676 433.176 327.39 433.176 327.39" stroke="#3D5AC4" stroke-width="1.14" stroke-linecap="round" stroke-linejoin="round"/>
<path d="M335.57 383.986H879.441" stroke="#3D5AC4" stroke-width="1.14" stroke-linecap="round" stroke-linejoin="round"/>
</svg>
