<svg width="14" height="15" viewBox="0 0 14 15" fill="none" xmlns="http://www.w3.org/2000/svg">
<path d="M13.1875 6.87544V13.6254C13.1875 13.9238 13.069 14.21 12.858 14.4209C12.647 14.6319 12.3609 14.7504 12.0625 14.7504H1.9375C1.63913 14.7504 1.35298 14.6319 1.142 14.4209C0.931026 14.21 0.8125 13.9238 0.8125 13.6254V6.87544C0.8125 6.57707 0.931026 6.29093 1.142 6.07995C1.35298 5.86897 1.63913 5.75044 1.9375 5.75044H3.625C3.77418 5.75044 3.91726 5.80971 4.02275 5.91519C4.12824 6.02068 4.1875 6.16376 4.1875 6.31294C4.1875 6.46213 4.12824 6.6052 4.02275 6.71069C3.91726 6.81618 3.77418 6.87544 3.625 6.87544H1.9375V13.6254H12.0625V6.87544H10.375C10.2258 6.87544 10.0827 6.81618 9.97725 6.71069C9.87176 6.6052 9.8125 6.46213 9.8125 6.31294C9.8125 6.16376 9.87176 6.02068 9.97725 5.91519C10.0827 5.80971 10.2258 5.75044 10.375 5.75044H12.0625C12.3609 5.75044 12.647 5.86897 12.858 6.07995C13.069 6.29093 13.1875 6.57707 13.1875 6.87544ZM4.58547 3.89841L6.4375 2.04568V8.56294C6.4375 8.71213 6.49676 8.8552 6.60225 8.96069C6.70774 9.06618 6.85082 9.12544 7 9.12544C7.14918 9.12544 7.29226 9.06618 7.39775 8.96069C7.50324 8.8552 7.5625 8.71213 7.5625 8.56294V2.04568L9.41453 3.89841C9.52008 4.00396 9.66323 4.06326 9.8125 4.06326C9.96177 4.06326 10.1049 4.00396 10.2105 3.89841C10.316 3.79286 10.3753 3.64971 10.3753 3.50044C10.3753 3.35118 10.316 3.20802 10.2105 3.10247L7.39797 0.289974C7.34573 0.237675 7.28369 0.196185 7.2154 0.167878C7.14712 0.13957 7.07392 0.125 7 0.125C6.92608 0.125 6.85288 0.13957 6.7846 0.167878C6.71631 0.196185 6.65427 0.237675 6.60203 0.289974L3.78953 3.10247C3.68398 3.20802 3.62469 3.35118 3.62469 3.50044C3.62469 3.64971 3.68398 3.79286 3.78953 3.89841C3.89508 4.00396 4.03823 4.06326 4.1875 4.06326C4.33677 4.06326 4.47992 4.00396 4.58547 3.89841Z" fill="#9397BB"/>
</svg>
