<svg width="192" height="26" viewBox="0 0 192 26" fill="none" xmlns="http://www.w3.org/2000/svg">
<g clip-path="url(#clip0_1_988)">
<path d="M4.77148 12.4899C4.89933 10.475 5.76494 8.57513 7.2064 7.14566C8.64787 5.71619 10.5665 4.855 12.6034 4.72317L14.3425 2.7186L12.6396 0.753601C9.53791 0.878412 6.59653 2.14983 4.39711 4.31641C2.19769 6.483 0.900373 9.387 0.761719 12.4541L2.7485 10.7736L4.77148 12.4899Z" fill="#250C77"/>
<path d="M13.6602 4.71922C15.6974 4.84567 17.6183 5.70178 19.0637 7.12744C20.509 8.5531 21.3797 10.4507 21.513 12.4652L23.5398 14.1853L25.5266 12.501C25.4004 9.43339 24.1149 6.52426 21.9243 4.34895C19.7337 2.17364 16.7975 0.890552 13.6963 0.753418L15.3955 2.71842L13.6602 4.71922Z" fill="#250C77"/>
<path d="M21.5164 13.5093C21.3885 15.5242 20.5229 17.4241 19.0814 18.8535C17.64 20.283 15.7214 21.1442 13.6845 21.276L11.9453 23.2806L13.6483 25.2456C16.7499 25.1208 19.6913 23.8494 21.8907 21.6828C24.0901 19.5162 25.3875 16.6122 25.5261 13.5451L23.5393 15.2256L21.5164 13.5093Z" fill="#250C77"/>
<path d="M12.6281 21.2797C10.5909 21.1532 8.66996 20.2971 7.22464 18.8714C5.77932 17.4458 4.90859 15.5482 4.77529 13.5337L2.7485 11.8136L0.761719 13.4979C0.887914 16.5655 2.17342 19.4746 4.36403 21.6499C6.55463 23.8252 9.49082 25.1083 12.5919 25.2455L10.889 23.2805L12.6281 21.2797Z" fill="#250C77"/>
<path d="M17.7157 10.4053H15.8556C15.6452 10.4053 15.4746 10.574 15.4746 10.7821V17.6671C15.4746 17.8752 15.6452 18.0439 15.8556 18.0439H17.7157C17.9261 18.0439 18.0967 17.8752 18.0967 17.6671V10.7821C18.0967 10.574 17.9261 10.4053 17.7157 10.4053Z" fill="#250C77"/>
<path d="M10.4325 12.6387H8.57238C8.36197 12.6387 8.19141 12.8074 8.19141 13.0155V17.667C8.19141 17.8751 8.36197 18.0438 8.57238 18.0438H10.4325C10.6429 18.0438 10.8135 17.8751 10.8135 17.667V13.0155C10.8135 12.8074 10.6429 12.6387 10.4325 12.6387Z" fill="#250C77"/>
<path d="M14.1626 7.95508H12.1225C12.0454 7.95533 11.9715 7.98581 11.9171 8.03984C11.8626 8.09387 11.832 8.16704 11.832 8.24333V17.7575C11.832 17.8338 11.8626 17.9069 11.9171 17.961C11.9715 18.015 12.0454 18.0455 12.1225 18.0457H14.1626C14.2389 18.0442 14.3116 18.0132 14.365 17.9593C14.4185 17.9054 14.4484 17.833 14.4484 17.7575V8.24333C14.4484 8.16785 14.4185 8.09538 14.365 8.04148C14.3116 7.98758 14.2389 7.95656 14.1626 7.95508ZM13.7255 17.1791C13.7255 17.2173 13.7101 17.254 13.6828 17.281C13.6555 17.308 13.6184 17.3232 13.5798 17.3232H12.7054C12.6668 17.3232 12.6297 17.308 12.6024 17.281C12.575 17.254 12.5597 17.2173 12.5597 17.1791V8.81983C12.5597 8.78161 12.575 8.74495 12.6024 8.71792C12.6297 8.69089 12.6668 8.6757 12.7054 8.6757H13.5798C13.6184 8.6757 13.6555 8.69089 13.6828 8.71792C13.7101 8.74495 13.7255 8.78161 13.7255 8.81983V17.1791Z" fill="#250C77"/>
<path d="M33.0331 20.5074C32.9139 20.5964 32.7657 20.6387 32.6169 20.6261H30.6234C30.4329 20.6261 30.2986 20.5865 30.2186 20.5074C30.1386 20.4283 30.0977 20.2936 30.0977 20.1061V5.9762C30.0977 5.7878 30.1377 5.65498 30.2186 5.57585C30.2996 5.49672 30.4339 5.46375 30.6234 5.46375H39.4954C39.6426 5.45083 39.7894 5.49208 39.9078 5.57962C39.9954 5.65874 40.0392 5.79251 40.0392 5.97996V7.75657C40.0392 7.94497 39.9992 8.07779 39.9192 8.15691C39.8392 8.23604 39.6963 8.27655 39.4915 8.27655H33.4493C33.41 8.26831 33.3693 8.2699 33.3308 8.28119C33.2923 8.29247 33.2573 8.31309 33.2289 8.34116C33.2005 8.36924 33.1797 8.40388 33.1682 8.44195C33.1568 8.48002 33.1552 8.52031 33.1636 8.55915V11.744C33.1552 11.7829 33.1568 11.8232 33.1682 11.8612C33.1797 11.8993 33.2005 11.9339 33.2289 11.962C33.2573 11.9901 33.2923 12.0107 33.3308 12.022C33.3693 12.0333 33.41 12.0349 33.4493 12.0266H38.7506C38.9553 12.0266 39.0972 12.0662 39.1772 12.1463C39.2572 12.2263 39.2982 12.3657 39.2982 12.5683V14.3185C39.2982 14.5069 39.2544 14.6407 39.1668 14.7198C39.0476 14.8088 38.8993 14.8511 38.7506 14.8385H33.4493C33.41 14.8302 33.3693 14.8318 33.3308 14.8431C33.2923 14.8544 33.2573 14.875 33.2289 14.9031C33.2005 14.9312 33.1797 14.9658 33.1682 15.0039C33.1568 15.042 33.1552 15.0822 33.1636 15.1211V20.1042C33.1642 20.2933 33.1207 20.4277 33.0331 20.5074Z" fill="#250C77"/>
<path d="M45.4745 20.5073C45.3553 20.5963 45.2071 20.6386 45.0583 20.626H43.0648C42.8743 20.626 42.7391 20.5864 42.6591 20.5073C42.5791 20.4282 42.5391 20.2944 42.5391 20.106V5.9761C42.5391 5.7877 42.5791 5.65488 42.6591 5.57575C42.7391 5.49663 42.8743 5.46366 43.0648 5.46366H45.0583C45.2072 5.45085 45.3557 5.49351 45.4745 5.58329C45.5621 5.66242 45.6059 5.79618 45.6059 5.98364V20.1136C45.6059 20.2963 45.5621 20.4276 45.4745 20.5073Z" fill="#250C77"/>
<path d="M59.1539 5.57919C59.2339 5.49912 59.3692 5.45956 59.5597 5.45956H61.5531C61.7021 5.44675 61.8505 5.48942 61.9693 5.57919C62.057 5.65832 62.1008 5.79208 62.1008 5.97954V20.1095C62.1135 20.3116 62.0717 20.5135 61.9798 20.6944C61.9404 20.7582 61.884 20.8101 61.8168 20.8445C61.7497 20.8789 61.6743 20.8944 61.5988 20.8894C61.4476 20.8825 61.3023 20.8295 61.1826 20.7378C60.9638 20.5738 60.7587 20.3926 60.5693 20.1961L52.2211 11.461V20.1057C52.2211 20.2941 52.1773 20.4279 52.0897 20.507C51.9705 20.596 51.8223 20.6383 51.6735 20.6257H49.68C49.4896 20.6257 49.3543 20.5861 49.2743 20.507C49.1943 20.4279 49.1543 20.2941 49.1543 20.1057V5.97577C49.1543 5.45579 49.3149 5.1958 49.6362 5.1958C49.7904 5.20373 49.9389 5.25649 50.0629 5.34746C50.2873 5.50893 50.4965 5.69023 50.6877 5.88911L59.0339 14.6205V5.97954C59.0339 5.79208 59.0739 5.65832 59.1539 5.57919Z" fill="#250C77"/>
<path d="M68.781 17.7444C68.8426 17.7936 68.9213 17.8169 69.0001 17.8094H75.0242C75.2147 17.8094 75.349 17.849 75.43 17.9291C75.5109 18.0091 75.55 18.142 75.55 18.3294V20.106C75.55 20.2944 75.51 20.4282 75.43 20.5073C75.35 20.5864 75.2147 20.6273 75.0242 20.6298H66.1742C65.9837 20.6298 65.8494 20.5902 65.7694 20.5111C65.6894 20.432 65.6484 20.2972 65.6484 20.1098V5.97987C65.6484 5.79147 65.6884 5.65865 65.7694 5.57952C65.8504 5.50039 65.9846 5.46366 66.1742 5.46366H68.1676C68.3166 5.45085 68.465 5.49351 68.5838 5.58329C68.6715 5.66242 68.7153 5.79618 68.7153 5.98364V17.5278C68.7077 17.6057 68.7313 17.6835 68.781 17.7444Z" fill="#250C77"/>
<path d="M80.4369 19.9542C80.3054 20.228 80.174 20.4086 80.0426 20.4959C79.9111 20.5832 79.714 20.6278 79.4511 20.6296H77.5015C77.1795 20.6296 77.0195 20.5288 77.0195 20.3263C77.0347 20.1983 77.0718 20.0738 77.1291 19.958L83.9418 6.20488C84.1457 5.77156 84.3136 5.48268 84.4457 5.33824C84.4984 5.2728 84.5649 5.21952 84.6406 5.1821C84.7162 5.14468 84.7992 5.12403 84.8838 5.12158C84.9655 5.12296 85.0457 5.14328 85.118 5.18091C85.1903 5.21854 85.2526 5.27243 85.3 5.33824C85.4935 5.61186 85.6621 5.90187 85.8039 6.20488L92.6614 19.9627C92.7183 20.0786 92.7553 20.2031 92.7709 20.331C92.769 20.5301 92.6093 20.6296 92.2919 20.6296H90.207C90.0078 20.6422 89.8092 20.5971 89.6355 20.4996C89.5041 20.413 89.3726 20.2324 89.2412 19.958L84.8162 10.7265L80.4369 19.9542Z" fill="#250C77"/>
<path d="M101.814 6.023C101.912 5.84567 102.046 5.69065 102.208 5.56801C102.326 5.49579 102.516 5.45968 102.78 5.45968H104.948C105.225 5.45968 105.364 5.54635 105.365 5.71967C105.36 5.83604 105.322 5.94868 105.255 6.04466L99.8443 14.971V20.1058C99.8443 20.2942 99.8005 20.428 99.7129 20.5071C99.5937 20.5961 99.4454 20.6384 99.2966 20.6258H97.3032C97.1127 20.6258 96.9784 20.5862 96.8984 20.5071C96.8184 20.428 96.7775 20.2933 96.7775 20.1058V15.0793L91.3009 6.04466C91.2347 5.94848 91.1967 5.83596 91.1914 5.71967C91.1914 5.54635 91.3375 5.45968 91.6295 5.45968H93.8859C94.0785 5.44779 94.271 5.48509 94.4449 5.56801C94.6126 5.68781 94.7509 5.84329 94.8497 6.023L98.3109 12.0461L101.814 6.023Z" fill="#250C77"/>
<path d="M113 16.564C113.053 16.5178 113.12 16.4908 113.19 16.4877C113.307 16.4877 113.438 16.5527 113.585 16.6827C114.138 17.1153 114.755 17.4625 115.413 17.7123C116.06 17.9606 116.747 18.0884 117.44 18.0891C118.301 18.0891 118.966 17.9321 119.434 17.6181C119.902 17.3041 120.135 16.8817 120.135 16.3511C120.149 16.0433 120.047 15.7412 119.849 15.5033C119.658 15.2866 119.348 15.0916 118.917 14.9183C118.313 14.6909 117.695 14.5021 117.067 14.3531C116 14.0931 115.12 13.7826 114.427 13.4215C113.777 13.0997 113.226 12.6138 112.828 12.0132C112.455 11.4354 112.269 10.7132 112.269 9.8466C112.269 8.87886 112.507 8.04488 112.981 7.34467C113.468 6.6341 114.153 6.07799 114.952 5.74328C115.793 5.37464 116.745 5.19032 117.81 5.19032C119.7 5.17205 121.536 5.80822 123.002 6.98859C123.162 7.10446 123.242 7.23445 123.242 7.37858C123.232 7.52093 123.179 7.65693 123.089 7.76856L122.169 9.19851C122.052 9.38691 121.927 9.48111 121.797 9.48111C121.651 9.46369 121.513 9.40331 121.402 9.30778C120.851 8.91792 120.255 8.59353 119.627 8.3413C119.042 8.11027 118.417 7.99259 117.787 7.99464C117.071 7.99464 116.505 8.1463 116.089 8.44963C115.891 8.58478 115.731 8.76645 115.622 8.97826C115.513 9.19007 115.459 9.42536 115.465 9.66292C115.451 9.98649 115.561 10.3033 115.772 10.5512C116.024 10.814 116.335 11.0144 116.68 11.1362C117.242 11.3445 117.817 11.5182 118.4 11.6562C119.524 11.9306 120.445 12.2594 121.162 12.6424C121.88 13.0255 122.416 13.5022 122.772 14.0724C123.13 14.6426 123.309 15.3394 123.309 16.1627C123.309 17.1298 123.061 17.9675 122.564 18.6759C122.068 19.3843 121.374 19.9297 120.484 20.3122C119.595 20.6946 118.573 20.8858 117.417 20.8858C116.411 20.8929 115.412 20.7242 114.465 20.3875C113.581 20.0751 112.758 19.6133 112.033 19.0226C111.828 18.8643 111.727 18.7193 111.727 18.5893C111.727 18.5026 111.785 18.366 111.902 18.1776L112.822 16.7693C112.87 16.6919 112.93 16.6226 113 16.564Z" fill="#250C77"/>
<path d="M136.961 8.15689C136.881 8.23696 136.746 8.27653 136.557 8.27653H132.789C132.75 8.26829 132.709 8.26988 132.67 8.28116C132.632 8.29245 132.597 8.31306 132.568 8.34114C132.54 8.36922 132.519 8.40386 132.508 8.44193C132.496 8.48 132.495 8.52028 132.503 8.55912V20.1061C132.503 20.2945 132.459 20.4283 132.372 20.5074C132.252 20.5964 132.104 20.6387 131.955 20.6261H129.962C129.771 20.6261 129.636 20.5865 129.556 20.5074C129.476 20.4283 129.436 20.2945 129.436 20.1061V8.55818C129.44 8.51869 129.435 8.47881 129.422 8.44138C129.409 8.40394 129.387 8.36986 129.359 8.34152C129.293 8.29359 129.211 8.27055 129.13 8.27653H125.362C125.171 8.27653 125.036 8.23696 124.956 8.15689C124.876 8.07682 124.836 7.944 124.836 7.75654V5.97994C124.836 5.79154 124.876 5.65872 124.956 5.57959C125.036 5.50047 125.171 5.45996 125.362 5.45996H136.556C136.746 5.45996 136.88 5.49952 136.96 5.57959C137.04 5.65966 137.081 5.79249 137.081 5.97994V7.75654C137.086 7.944 137.045 8.07776 136.961 8.15689Z" fill="#250C77"/>
<path d="M139.671 19.9542C139.54 20.228 139.408 20.4086 139.277 20.4959C139.146 20.5832 138.948 20.6278 138.685 20.6296H136.736C136.414 20.6296 136.254 20.5288 136.254 20.3263C136.269 20.1983 136.306 20.0738 136.363 19.958L143.176 6.20488C143.38 5.77156 143.548 5.48268 143.68 5.33824C143.733 5.2728 143.799 5.21952 143.875 5.1821C143.951 5.14468 144.034 5.12403 144.118 5.12158C144.2 5.12296 144.28 5.14328 144.352 5.18091C144.425 5.21854 144.487 5.27243 144.534 5.33824C144.728 5.61186 144.896 5.90187 145.038 6.20488L151.896 19.9627C151.953 20.0786 151.99 20.2031 152.005 20.331C152.005 20.5332 151.845 20.6344 151.523 20.6344H149.439C149.239 20.6469 149.041 20.6018 148.867 20.5044C148.736 20.4177 148.604 20.2371 148.473 19.9627L144.048 10.7312L139.671 19.9542Z" fill="#250C77"/>
<path d="M156.648 20.5072C156.529 20.5962 156.381 20.6385 156.232 20.6259H154.239C154.048 20.6259 153.913 20.5863 153.833 20.5072C153.753 20.428 153.713 20.2943 153.713 20.1059V5.97597C153.713 5.78757 153.753 5.65475 153.833 5.57562C153.913 5.49649 154.048 5.46352 154.239 5.46352H156.232C156.381 5.45072 156.529 5.49338 156.648 5.58315C156.736 5.66228 156.78 5.79605 156.78 5.9835V20.1134C156.78 20.2962 156.736 20.4274 156.648 20.5072ZM162.934 5.56808C163.12 5.48484 163.323 5.44765 163.526 5.45975H165.848C166.139 5.45975 166.286 5.54642 166.286 5.71974C166.276 5.84276 166.222 5.95811 166.133 6.04473L160.656 12.8695L166.33 20.0192C166.413 20.1181 166.466 20.2383 166.483 20.3659C166.483 20.5392 166.33 20.6259 166.023 20.6259H163.613C163.407 20.637 163.2 20.5999 163.011 20.5175C162.831 20.4074 162.678 20.2595 162.562 20.0842L157.439 13.4328C157.326 13.3055 157.257 13.1462 157.242 12.9778C157.242 12.8478 157.314 12.6886 157.461 12.5012L162.499 6.02307C162.61 5.84202 162.758 5.6868 162.935 5.56808H162.934Z" fill="#250C77"/>
<path d="M178.072 17.9288C178.16 18.0079 178.204 18.1417 178.204 18.3291V20.1057C178.204 20.2941 178.16 20.4279 178.072 20.507C177.953 20.5959 177.805 20.6382 177.656 20.6257H168.85C168.659 20.6257 168.524 20.5862 168.444 20.507C168.364 20.4279 168.324 20.2941 168.324 20.1057V5.97582C168.324 5.78743 168.364 5.6546 168.444 5.57548C168.524 5.49635 168.659 5.45584 168.85 5.45584H177.63C177.779 5.44304 177.928 5.4857 178.047 5.57548C178.134 5.6546 178.178 5.78837 178.178 5.97582V7.75619C178.178 7.94459 178.134 8.07741 178.047 8.15654C177.928 8.24632 177.779 8.28898 177.63 8.27618H171.672C171.633 8.26768 171.592 8.26909 171.553 8.28028C171.515 8.29148 171.48 8.31209 171.451 8.34023C171.423 8.36837 171.402 8.40313 171.39 8.44132C171.379 8.47951 171.378 8.5199 171.386 8.55877V11.3103C171.378 11.3492 171.379 11.3896 171.39 11.4278C171.402 11.466 171.423 11.5007 171.451 11.5289C171.48 11.557 171.515 11.5776 171.553 11.5888C171.592 11.6 171.633 11.6014 171.672 11.5929H176.885C176.959 11.5807 177.036 11.5863 177.108 11.6091C177.18 11.632 177.246 11.6716 177.299 11.7246C177.353 11.7775 177.393 11.8423 177.416 11.9136C177.439 11.985 177.445 12.0607 177.432 12.1346V13.8895C177.432 14.0779 177.389 14.2117 177.301 14.2908C177.182 14.3801 177.034 14.4224 176.885 14.4095H171.672C171.595 14.4026 171.517 14.4218 171.452 14.4641C171.426 14.4955 171.407 14.5318 171.396 14.5709C171.384 14.61 171.382 14.6509 171.387 14.6912V17.5294C171.379 17.5683 171.38 17.6087 171.391 17.6468C171.403 17.685 171.424 17.7198 171.452 17.7479C171.48 17.7761 171.516 17.7967 171.554 17.8079C171.593 17.8191 171.634 17.8205 171.673 17.812H177.653C177.803 17.7978 177.952 17.8395 178.072 17.9288Z" fill="#250C77"/>
<path d="M180.93 16.5639C180.981 16.5186 181.046 16.4917 181.115 16.4876C181.233 16.4876 181.364 16.5526 181.51 16.6826C182.065 17.1145 182.684 17.4606 183.344 17.7093C183.99 17.9578 184.677 18.0855 185.37 18.0861C186.232 18.0861 186.897 17.9291 187.363 17.6151C187.582 17.4829 187.762 17.2963 187.885 17.0741C188.008 16.8518 188.069 16.6015 188.064 16.3482C188.078 16.0403 187.977 15.7383 187.779 15.5004C187.588 15.2837 187.278 15.0887 186.848 14.9154C186.244 14.688 185.625 14.4992 184.996 14.3502C183.93 14.0902 183.051 13.7796 182.357 13.4185C181.708 13.097 181.156 12.6111 180.758 12.0103C180.386 11.4325 180.2 10.7103 180.199 9.84368C180.199 8.87593 180.437 8.04195 180.911 7.34174C181.399 6.63117 182.084 6.07506 182.883 5.74035C183.722 5.37171 184.675 5.18739 185.74 5.18739C187.63 5.16912 189.467 5.80529 190.932 6.98566C191.093 7.10121 191.173 7.23121 191.173 7.37565C191.163 7.518 191.11 7.654 191.02 7.76564L190.1 9.19558C189.982 9.38398 189.858 9.47818 189.727 9.47818C189.581 9.46043 189.444 9.40009 189.333 9.30485C188.782 8.91172 188.187 8.58445 187.559 8.32989C186.973 8.09868 186.349 7.98099 185.718 7.98324C185.003 7.98324 184.438 8.1349 184.021 8.43822C183.823 8.57333 183.663 8.75497 183.554 8.96677C183.445 9.17857 183.391 9.41389 183.396 9.65151C183.383 9.97508 183.492 10.2919 183.703 10.5398C183.956 10.8024 184.267 11.0027 184.613 11.1248C185.173 11.3331 185.745 11.5067 186.327 11.6448C187.452 11.9192 188.373 12.248 189.089 12.631C189.805 13.0141 190.342 13.4908 190.7 14.061C191.057 14.6312 191.236 15.328 191.236 16.1513C191.236 17.1184 190.988 17.9561 190.491 18.6645C189.995 19.3729 189.301 19.9183 188.41 20.3008C187.521 20.6832 186.499 20.8744 185.343 20.8744C184.337 20.8815 183.337 20.7128 182.391 20.3761C181.506 20.0637 180.684 19.6019 179.959 19.0112C179.754 18.8529 179.652 18.7078 179.652 18.5779C179.652 18.4912 179.71 18.3546 179.828 18.1662L180.748 16.7579C180.798 16.6842 180.859 16.6187 180.93 16.5639Z" fill="#250C77"/>
</g>
<defs>
<clipPath id="clip0_1_988">
<rect width="192" height="26" fill="white"/>
</clipPath>
</defs>
</svg>
