<svg width="20" height="20" viewBox="0 0 20 20" fill="none" xmlns="http://www.w3.org/2000/svg">
<path d="M3.54199 3.33325C3.04471 3.33325 2.5678 3.5308 2.21617 3.88243C1.86454 4.23406 1.66699 4.71097 1.66699 5.20825V7.29159C1.66699 7.78887 1.86454 8.26578 2.21617 8.61741C2.5678 8.96904 3.04471 9.16658 3.54199 9.16658H5.62533C6.12261 9.16658 6.59952 8.96904 6.95115 8.61741C7.30278 8.26578 7.50033 7.78887 7.50033 7.29159V5.20825C7.50033 4.71097 7.30278 4.23406 6.95115 3.88243C6.59952 3.5308 6.12261 3.33325 5.62533 3.33325H3.54199ZM2.91699 5.20825C2.91699 5.04249 2.98284 4.88352 3.10005 4.76631C3.21726 4.6491 3.37623 4.58325 3.54199 4.58325H5.62533C5.79109 4.58325 5.95006 4.6491 6.06727 4.76631C6.18448 4.88352 6.25033 5.04249 6.25033 5.20825V7.29159C6.25033 7.45735 6.18448 7.61632 6.06727 7.73353C5.95006 7.85074 5.79109 7.91658 5.62533 7.91658H3.54199C3.37623 7.91658 3.21726 7.85074 3.10005 7.73353C2.98284 7.61632 2.91699 7.45735 2.91699 7.29159V5.20825ZM9.37533 4.16659C9.20957 4.16659 9.05059 4.23243 8.93338 4.34964C8.81617 4.46685 8.75033 4.62582 8.75033 4.79159C8.75033 4.95735 8.81617 5.11632 8.93338 5.23353C9.05059 5.35074 9.20957 5.41659 9.37533 5.41659H17.7087C17.8744 5.41659 18.0334 5.35074 18.1506 5.23353C18.2678 5.11632 18.3337 4.95735 18.3337 4.79159C18.3337 4.62582 18.2678 4.46685 18.1506 4.34964C18.0334 4.23243 17.8744 4.16659 17.7087 4.16659H9.37533ZM9.37533 6.66659C9.20957 6.66659 9.05059 6.73243 8.93338 6.84964C8.81617 6.96685 8.75033 7.12582 8.75033 7.29159C8.75033 7.45735 8.81617 7.61632 8.93338 7.73353C9.05059 7.85074 9.20957 7.91658 9.37533 7.91658H15.2087C15.3744 7.91658 15.5334 7.85074 15.6506 7.73353C15.7678 7.61632 15.8337 7.45735 15.8337 7.29159C15.8337 7.12582 15.7678 6.96685 15.6506 6.84964C15.5334 6.73243 15.3744 6.66659 15.2087 6.66659H9.37533ZM3.54199 10.8333C3.04471 10.8333 2.5678 11.0308 2.21617 11.3824C1.86454 11.7341 1.66699 12.211 1.66699 12.7083V14.7916C1.66699 15.0378 1.71549 15.2816 1.80972 15.5091C1.90395 15.7366 2.04206 15.9433 2.21617 16.1174C2.39028 16.2915 2.59698 16.4296 2.82446 16.5239C3.05195 16.6181 3.29576 16.6666 3.54199 16.6666H5.62533C5.87155 16.6666 6.11537 16.6181 6.34286 16.5239C6.57034 16.4296 6.77704 16.2915 6.95115 16.1174C7.12526 15.9433 7.26337 15.7366 7.3576 15.5091C7.45183 15.2816 7.50033 15.0378 7.50033 14.7916V12.7083C7.50033 12.211 7.30278 11.7341 6.95115 11.3824C6.59952 11.0308 6.12261 10.8333 5.62533 10.8333H3.54199ZM2.91699 12.7083C2.91699 12.5425 2.98284 12.3835 3.10005 12.2663C3.21726 12.1491 3.37623 12.0833 3.54199 12.0833H5.62533C5.79109 12.0833 5.95006 12.1491 6.06727 12.2663C6.18448 12.3835 6.25033 12.5425 6.25033 12.7083V14.7916C6.25033 14.9573 6.18448 15.1163 6.06727 15.2335C5.95006 15.3507 5.79109 15.4166 5.62533 15.4166H3.54199C3.37623 15.4166 3.21726 15.3507 3.10005 15.2335C2.98284 15.1163 2.91699 14.9573 2.91699 14.7916V12.7083ZM9.37533 11.6666C9.20957 11.6666 9.05059 11.7324 8.93338 11.8496C8.81617 11.9669 8.75033 12.1258 8.75033 12.2916C8.75033 12.4573 8.81617 12.6163 8.93338 12.7335C9.05059 12.8507 9.20957 12.9166 9.37533 12.9166H17.7087C17.8744 12.9166 18.0334 12.8507 18.1506 12.7335C18.2678 12.6163 18.3337 12.4573 18.3337 12.2916C18.3337 12.1258 18.2678 11.9669 18.1506 11.8496C18.0334 11.7324 17.8744 11.6666 17.7087 11.6666H9.37533ZM9.37533 14.1666C9.20957 14.1666 9.05059 14.2324 8.93338 14.3496C8.81617 14.4669 8.75033 14.6258 8.75033 14.7916C8.75033 14.9573 8.81617 15.1163 8.93338 15.2335C9.05059 15.3507 9.20957 15.4166 9.37533 15.4166H15.2087C15.3744 15.4166 15.5334 15.3507 15.6506 15.2335C15.7678 15.1163 15.8337 14.9573 15.8337 14.7916C15.8337 14.6258 15.7678 14.4669 15.6506 14.3496C15.5334 14.2324 15.3744 14.1666 15.2087 14.1666H9.37533Z" fill="#9397BB"/>
</svg>
