<svg width="24" height="24" viewBox="0 0 24 24" fill="none" xmlns="http://www.w3.org/2000/svg">
<path d="M10.9 6.5H13.1V8.7H10.9V6.5ZM12 17.5C12.605 17.5 13.1 17.005 13.1 16.4V12C13.1 11.395 12.605 10.9 12 10.9C11.395 10.9 10.9 11.395 10.9 12V16.4C10.9 17.005 11.395 17.5 12 17.5ZM12 1C5.928 1 1 5.928 1 12C1 18.072 5.928 23 12 23C18.072 23 23 18.072 23 12C23 5.928 18.072 1 12 1ZM12 20.8C7.149 20.8 3.2 16.851 3.2 12C3.2 7.149 7.149 3.2 12 3.2C16.851 3.2 20.8 7.149 20.8 12C20.8 16.851 16.851 20.8 12 20.8Z" fill="#A3AED0"/>
</svg>
