<svg width="24" height="24" viewBox="0 0 24 24" fill="none" xmlns="http://www.w3.org/2000/svg">
<g clip-path="url(#clip0_1_1016)">
<path d="M20.6487 18.4446L19.1183 16.9231V11.0256C19.1183 7.40462 17.1727 4.37333 13.7797 3.57128V2.76923C13.7797 1.79026 12.9849 1 12.0002 1C11.0155 1 10.2207 1.79026 10.2207 2.76923V3.57128C6.81586 4.37333 4.88211 7.39282 4.88211 11.0256V16.9231L3.35173 18.4446C2.60433 19.1877 3.12632 20.4615 4.18217 20.4615H19.8064C20.8741 20.4615 21.3961 19.1877 20.6487 18.4446ZM16.7456 18.1026H7.25481V11.0256C7.25481 8.10051 9.0462 5.71795 12.0002 5.71795C14.9542 5.71795 16.7456 8.10051 16.7456 11.0256V18.1026ZM12.0002 24C13.3052 24 14.3729 22.9385 14.3729 21.641H9.62751C9.62751 22.9385 10.6834 24 12.0002 24Z" fill="#A3AED0"/>
</g>
<defs>
<clipPath id="clip0_1_1016">
<rect width="24" height="24" fill="white"/>
</clipPath>
</defs>
</svg>
