<svg width="48" height="48" viewBox="0 0 48 48" fill="none" xmlns="http://www.w3.org/2000/svg">
<path d="M36.1499 3.10791L44.4959 11.8079V44.8919H13.3184V44.9999H44.6024V11.9174L36.1499 3.10791Z" fill="#909090"/>
<path d="M36.0474 3H13.2129V44.892H44.4969V11.8095L36.0474 3Z" fill="#F4F4F4"/>
<path d="M12.9834 5.25H3.39844V15.4905H33.5484V5.25H12.9834Z" fill="#7A7B7C"/>
<path d="M33.7073 15.3166H3.5918V5.0686H33.7073V15.3166Z" fill="#DD2025"/>
<path d="M13.5777 6.80103H11.6172V14.001H13.1592V11.5725L13.4997 11.592C13.8305 11.5863 14.1583 11.5271 14.4702 11.4165C14.7436 11.3225 14.9952 11.174 15.2097 10.98C15.4279 10.7953 15.6 10.5621 15.7122 10.299C15.8626 9.86178 15.9164 9.39708 15.8697 8.93703C15.8603 8.60839 15.8027 8.28292 15.6987 7.97103C15.604 7.74589 15.4635 7.54293 15.2861 7.37507C15.1086 7.20721 14.8982 7.07813 14.6682 6.99603C14.4693 6.92403 14.2638 6.87178 14.0547 6.84003C13.8963 6.8156 13.7364 6.80257 13.5762 6.80103M13.2927 10.242H13.1592V8.02203H13.4487C13.5765 8.01282 13.7047 8.03243 13.8238 8.07943C13.943 8.12642 14.0501 8.19959 14.1372 8.29353C14.3177 8.53505 14.4141 8.82904 14.4117 9.13053C14.4117 9.49953 14.4117 9.83403 14.0787 10.0695C13.8388 10.2015 13.5657 10.2624 13.2927 10.242ZM18.7992 6.78153C18.6327 6.78153 18.4707 6.79353 18.3567 6.79803L17.9997 6.80703H16.8297V14.007H18.2067C18.7329 14.0215 19.2569 13.9323 19.7487 13.7445C20.1446 13.5875 20.4951 13.3344 20.7687 13.008C21.0347 12.6787 21.2257 12.2953 21.3282 11.8845C21.446 11.4193 21.5035 10.9409 21.4992 10.461C21.5283 9.89427 21.4844 9.32612 21.3687 8.77053C21.2589 8.36158 21.0532 7.98467 20.7687 7.67103C20.5455 7.41778 20.2722 7.21349 19.9662 7.07103C19.7034 6.94941 19.4269 6.85977 19.1427 6.80403C19.0297 6.78536 18.9152 6.77683 18.8007 6.77853M18.5277 12.684H18.3777V8.08803H18.3972C18.7064 8.05245 19.0193 8.10825 19.2972 8.24853C19.5007 8.41102 19.6665 8.61573 19.7832 8.84853C19.9091 9.09354 19.9817 9.36244 19.9962 9.63753C20.0097 9.96753 19.9962 10.2375 19.9962 10.461C20.0023 10.7185 19.9857 10.976 19.9467 11.2305C19.9005 11.4919 19.815 11.7447 19.6932 11.9805C19.5553 12.1998 19.3691 12.3845 19.1487 12.5205C18.9636 12.6402 18.7445 12.6961 18.5247 12.6795M26.1447 6.80703H22.4997V14.007H24.0417V11.151H25.9917V9.81303H24.0417V8.14503H26.1417V6.80703" fill="#464648"/>
<path d="M32.671 30.3825C32.671 30.3825 37.453 29.5155 37.453 31.149C37.453 32.7825 34.4905 32.118 32.671 30.3825ZM29.1355 30.507C28.3758 30.6749 27.6354 30.9207 26.926 31.2405L27.526 29.8905C28.126 28.5405 28.7485 26.7 28.7485 26.7C29.4645 27.905 30.2975 29.0365 31.2355 30.078C30.5282 30.1835 29.8271 30.3277 29.1355 30.51V30.507ZM27.2425 20.757C27.2425 19.3335 27.703 18.945 28.0615 18.945C28.42 18.945 28.8235 19.1175 28.837 20.3535C28.7202 21.5964 28.46 22.8215 28.0615 24.0045C27.5157 23.0113 27.2332 21.8948 27.241 20.7615L27.2425 20.757ZM20.269 36.531C18.802 35.6535 23.3455 32.952 24.169 32.865C24.1645 32.8665 21.805 37.449 20.269 36.531ZM38.8495 31.3425C38.8345 31.1925 38.6995 29.532 35.7445 29.6025C34.5128 29.5827 33.2818 29.6695 32.065 29.862C30.8864 28.6746 29.8715 27.3353 29.047 25.8795C29.5664 24.3787 29.8808 22.8145 29.9815 21.2295C29.938 19.4295 29.5075 18.3975 28.1275 18.4125C26.7475 18.4275 26.5465 19.635 26.728 21.432C26.9058 22.6396 27.2412 23.8186 27.7255 24.939C27.7255 24.939 27.088 26.9235 26.245 28.8975C25.402 30.8715 24.826 31.9065 24.826 31.9065C23.3601 32.3837 21.9801 33.0927 20.7385 34.0065C19.5025 35.157 19 36.0405 19.651 36.924C20.212 37.686 22.1755 37.8585 23.9305 35.559C24.863 34.3713 25.7149 33.1225 26.4805 31.821C26.4805 31.821 29.1565 31.0875 29.989 30.8865C30.8215 30.6855 31.828 30.5265 31.828 30.5265C31.828 30.5265 34.2715 32.985 36.628 32.898C38.9845 32.811 38.8705 31.4895 38.8555 31.3455" fill="#DD2025"/>
<path d="M35.9316 3.11548V11.925H44.3811L35.9316 3.11548Z" fill="#909090"/>
<path d="M36.0469 3V11.8095H44.4964L36.0469 3Z" fill="#F4F4F4"/>
<path d="M13.4625 6.68555H11.502V13.8856H13.05V11.4586L13.392 11.4781C13.7228 11.4724 14.0506 11.4131 14.3625 11.3026C14.6359 11.2085 14.8874 11.06 15.102 10.8661C15.3186 10.6808 15.4891 10.4476 15.6 10.1851C15.7504 9.7478 15.8041 9.2831 15.7575 8.82305C15.7481 8.49442 15.6905 8.16894 15.5865 7.85705C15.4918 7.63191 15.3512 7.42896 15.1738 7.26109C14.9964 7.09323 14.786 6.96415 14.556 6.88205C14.3562 6.80935 14.1496 6.75659 13.9395 6.72455C13.7811 6.70012 13.6212 6.68709 13.461 6.68555M13.1775 10.1266H13.044V7.90655H13.335C13.4627 7.89734 13.5909 7.91696 13.7101 7.96395C13.8293 8.01094 13.9364 8.08411 14.0235 8.17805C14.2039 8.41958 14.3003 8.71356 14.298 9.01505C14.298 9.38405 14.298 9.71855 13.965 9.95405C13.7251 10.086 13.452 10.1454 13.179 10.1251M18.684 6.66605C18.5175 6.66605 18.3555 6.67805 18.2415 6.68255L17.889 6.69155H16.719V13.8916H18.096C18.6222 13.906 19.1461 13.8168 19.638 13.6291C20.0338 13.472 20.3844 13.2189 20.658 12.8926C20.924 12.5632 21.1149 12.1798 21.2175 11.7691C21.3353 11.3039 21.3928 10.8254 21.3885 10.3456C21.4175 9.77879 21.3737 9.21064 21.258 8.65505C21.1481 8.2461 20.9424 7.86919 20.658 7.55555C20.4347 7.3023 20.1615 7.09801 19.8555 6.95555C19.5926 6.83393 19.3161 6.74429 19.032 6.68855C18.9189 6.66989 18.8045 6.66135 18.69 6.66305M18.417 12.5686H18.267V7.97255H18.2865C18.5957 7.93697 18.9086 7.99277 19.1865 8.13305C19.3899 8.29554 19.5558 8.50025 19.6725 8.73305C19.7984 8.97806 19.871 9.24696 19.8855 9.52205C19.899 9.85205 19.8855 10.1221 19.8855 10.3456C19.8916 10.603 19.875 10.8605 19.836 11.1151C19.7897 11.3764 19.7043 11.6293 19.5825 11.8651C19.4446 12.0843 19.2583 12.269 19.038 12.4051C18.8529 12.5248 18.6337 12.5806 18.414 12.5641M26.0295 6.69155H22.3845V13.8916H23.9265V11.0356H25.8765V9.69755H23.9265V8.02955H26.0265V6.69155" fill="white"/>
</svg>
