<svg width="48" height="48" viewBox="0 0 48 48" fill="none" xmlns="http://www.w3.org/2000/svg">
<path d="M27.804 3.48047V7.77497C32.904 7.80347 38.8395 7.72247 43.935 7.79897C44.898 7.79897 44.94 8.65097 44.952 9.39497C45.033 18.308 44.9325 27.4775 45 36.395C44.982 36.746 44.991 38.045 44.9805 38.414C44.9475 39.6485 44.3295 39.7025 43.095 39.74C42.897 39.74 42.315 39.749 42.123 39.758C37.3515 39.734 32.58 39.7445 27.804 39.7445V44.5175L3 40.7V7.30847L27.804 3.48047Z" fill="#D33922"/>
<path d="M27.8053 9.20703H43.5553V38.307H27.8053V34.5H39.2563V32.5875H27.8053V30.2025H39.2563V28.2945H27.8098C27.8098 27.3585 27.8098 26.424 27.8008 25.4895C28.7376 25.8275 29.7381 25.9524 30.7293 25.8551C31.7205 25.7578 32.6775 25.4408 33.5308 24.927C34.4005 24.3555 35.1209 23.5844 35.6321 22.678C36.1433 21.7715 36.4303 20.756 36.4693 19.716C34.3693 19.701 32.2798 19.707 30.1903 19.707C30.1903 17.631 30.2143 15.5565 30.1468 13.485C29.3638 13.635 28.5823 13.8 27.8038 13.9665V9.20853" fill="white"/>
<path d="M31.149 12.4844C32.7761 12.5863 34.3105 13.2768 35.4659 14.4269C36.6212 15.5771 37.3187 17.1083 37.428 18.7349C35.328 18.7589 33.2385 18.7499 31.1445 18.7499V12.4844" fill="#D33922"/>
<path d="M10.6506 16.0895C13.2411 16.214 16.3806 15.0635 18.5286 17.006C20.5851 19.502 20.0406 24.092 16.9926 25.5845C15.8843 26.0233 14.6829 26.174 13.5006 26.0225C13.5006 27.8885 13.4916 29.7545 13.5006 31.619C12.5556 31.538 11.6061 31.457 10.6611 31.3805C10.6176 26.2805 10.6086 21.1805 10.6611 16.0805" fill="white"/>
<path d="M13.489 18.6673C14.4295 18.6238 15.589 18.4528 16.228 19.3348C16.4835 19.8151 16.6222 20.3488 16.6329 20.8927C16.6435 21.4366 16.5259 21.9754 16.2895 22.4653C15.745 23.4478 14.515 23.3533 13.5655 23.4673C13.465 21.8683 13.4755 20.2708 13.489 18.6673Z" fill="#D33922"/>
</svg>
