<svg width="16" height="16" viewBox="0 0 16 16" fill="none" xmlns="http://www.w3.org/2000/svg">
<path d="M12.9997 5.17068C12.8123 4.98442 12.5589 4.87988 12.2947 4.87988C12.0305 4.87988 11.7771 4.98442 11.5897 5.17068L7.9997 8.71068L4.4597 5.17068C4.27234 4.98442 4.01889 4.87988 3.7547 4.87988C3.49052 4.87988 3.23707 4.98442 3.0497 5.17068C2.95598 5.26364 2.88158 5.37424 2.83081 5.4961C2.78004 5.61796 2.75391 5.74866 2.75391 5.88068C2.75391 6.01269 2.78004 6.14339 2.83081 6.26525C2.88158 6.38711 2.95598 6.49771 3.0497 6.59068L7.2897 10.8307C7.38267 10.9244 7.49327 10.9988 7.61513 11.0496C7.73699 11.1003 7.86769 11.1265 7.9997 11.1265C8.13172 11.1265 8.26242 11.1003 8.38428 11.0496C8.50614 10.9988 8.61674 10.9244 8.7097 10.8307L12.9997 6.59068C13.0934 6.49771 13.1678 6.38711 13.2186 6.26525C13.2694 6.14339 13.2955 6.01269 13.2955 5.88068C13.2955 5.74866 13.2694 5.61796 13.2186 5.4961C13.1678 5.37424 13.0934 5.26364 12.9997 5.17068Z" fill="#9397BB"/>
</svg>
